<svg xmlns="http://www.w3.org/2000/svg" viewBox="0 0 320 260" width="320" height="260">
  <title>몽글여행 메인 로고</title>
  <desc>몽글이 마스코트 + 몽글여행 워드마크 + Mongle Trip 영문</desc>

  <style>
    @font-face {
      font-family: 'KyoboHand';
      src: url('./KyoboHandwriting.woff2') format('woff2');
      font-display: swap;
    }
    .ko { font-family: 'KyoboHand', cursive; font-size: 56px; fill: #2C2416; }
    .en { font-family: 'KyoboHand', cursive; font-size: 22px; fill: #C4813A; letter-spacing: 1px; }
  </style>

  <g transform="translate(95, 20)">
    <text x="22" y="22" fill="#C4813A" style="font:bold 16px serif;">✦</text>
    <text x="138" y="32" fill="#E8C07A" style="font:bold 12px serif;">✧</text>

    <g transform="translate(140, 24) rotate(-12)">
      <path d="M 0 0 L 18 7 L 9 11 Z" fill="#F0C4A8" stroke="#5C4F3A" stroke-width="1.5" stroke-linejoin="round"/>
      <path d="M 0 0 L 9 11 L 18 7" fill="none" stroke="#5C4F3A" stroke-width="1.5" stroke-linejoin="round"/>
    </g>

    <ellipse cx="85" cy="128" rx="44" ry="4" fill="#5C4F3A" opacity="0.10"/>

    <path d="M 40 108
             C 22 108 14 92 24 84
             C 14 76 18 60 32 60
             C 28 42 50 32 62 46
             C 68 30 92 30 100 46
             C 116 36 138 46 134 64
             C 150 68 148 88 132 90
             C 138 104 122 110 108 108
             Z"
          fill="#FFE4C7" stroke="#5C4F3A" stroke-width="2.5" stroke-linejoin="round"/>

    <ellipse cx="56" cy="88" rx="6.5" ry="4" fill="#F4A48B" opacity="0.55"/>
    <ellipse cx="108" cy="88" rx="6.5" ry="4" fill="#F4A48B" opacity="0.55"/>

    <ellipse cx="68" cy="78" rx="3" ry="4" fill="#2C2416"/>
    <ellipse cx="96" cy="78" rx="3" ry="4" fill="#2C2416"/>
    <circle cx="69.2" cy="76.5" r="0.9" fill="#FFFFFF"/>
    <circle cx="97.2" cy="76.5" r="0.9" fill="#FFFFFF"/>

    <path d="M 74 92 Q 82 99 90 92" fill="none" stroke="#2C2416" stroke-width="2.2" stroke-linecap="round"/>
  </g>

  <text x="160" y="210" text-anchor="middle" class="ko">몽글여행</text>

  <line x1="120" y1="226" x2="148" y2="226" stroke="#C4813A" stroke-width="1.5" opacity="0.5"/>
  <circle cx="160" cy="226" r="2.5" fill="#C4813A"/>
  <line x1="172" y1="226" x2="200" y2="226" stroke="#C4813A" stroke-width="1.5" opacity="0.5"/>

  <text x="160" y="250" text-anchor="middle" class="en">Mongle Trip</text>
</svg>
