<svg xmlns="http://www.w3.org/2000/svg" viewBox="0 0 130 100" width="260" height="200">
  <title>몽글이 마스코트</title>
  <desc>몽글여행 앱의 마스코트 캐릭터 — 둥글둥글 부드러운 구름 모양</desc>

  <ellipse cx="65" cy="94" rx="34" ry="3.5" fill="#5C4F3A" opacity="0.10"/>

  <path d="M 28 78
           C 14 78 7 65 16 58
           C 8 51 12 38 23 38
           C 21 24 39 16 49 26
           C 53 14 75 14 81 26
           C 93 17 110 26 107 41
           C 119 44 117 60 105 62
           C 110 73 95 78 84 76
           Z"
        fill="#FFE4C7" stroke="#5C4F3A" stroke-width="2.5" stroke-linejoin="round"/>

  <ellipse cx="38" cy="60" rx="5" ry="3" fill="#F4A48B" opacity="0.55"/>
  <ellipse cx="78" cy="60" rx="5" ry="3" fill="#F4A48B" opacity="0.55"/>

  <ellipse cx="48" cy="51" rx="2.3" ry="3.2" fill="#2C2416"/>
  <ellipse cx="70" cy="51" rx="2.3" ry="3.2" fill="#2C2416"/>
  <circle cx="48.8" cy="49.8" r="0.7" fill="#FFFFFF"/>
  <circle cx="70.8" cy="49.8" r="0.7" fill="#FFFFFF"/>

  <path d="M 52 64 Q 59 70 66 64" fill="none" stroke="#2C2416" stroke-width="2.2" stroke-linecap="round"/>
</svg>
