<svg xmlns="http://www.w3.org/2000/svg" viewBox="0 0 1024 1024" width="200" height="200">
  <title>몽글여행 앱 아이콘</title>
  <desc>iOS/Android 앱 스토어용 1024x1024 정사각형 아이콘</desc>

  <rect width="1024" height="1024" rx="230" fill="#C4813A"/>

  <g transform="translate(512, 540)">
    <ellipse cx="0" cy="280" rx="240" ry="22" fill="#5C4F3A" opacity="0.18"/>

    <g transform="translate(-280, -200) scale(5.6)">
      <path d="M 28 78
               C 14 78 7 65 16 58
               C 8 51 12 38 23 38
               C 21 24 39 16 49 26
               C 53 14 75 14 81 26
               C 93 17 110 26 107 41
               C 119 44 117 60 105 62
               C 110 73 95 78 84 76
               Z"
            fill="#FFE4C7" stroke="#3C2818" stroke-width="2.8" stroke-linejoin="round"/>

      <ellipse cx="38" cy="60" rx="5" ry="3" fill="#F4A48B" opacity="0.6"/>
      <ellipse cx="78" cy="60" rx="5" ry="3" fill="#F4A48B" opacity="0.6"/>

      <ellipse cx="48" cy="51" rx="2.3" ry="3.2" fill="#2C2416"/>
      <ellipse cx="70" cy="51" rx="2.3" ry="3.2" fill="#2C2416"/>

      <path d="M 52 64 Q 59 70 66 64" fill="none" stroke="#2C2416" stroke-width="2.4" stroke-linecap="round"/>
    </g>
  </g>
</svg>
